<svg width="336" height="232" viewBox="0 0 336 232" fill="none" xmlns="http://www.w3.org/2000/svg">
<path d="M218.645 0.0975387C216.708 0.235374 215.823 0.385365 214.897 0.729952C214.044 1.04211 212.391 1.39887 210.848 1.60156C209.975 1.71102 209.816 1.75965 209.426 2.00694C209.065 2.23396 208.634 2.40831 207.518 2.77317C206.994 2.94749 206.328 3.18261 206.035 3.30018C205.747 3.41774 205.406 3.54748 205.284 3.58397C205.065 3.65694 204.111 4.11908 203.335 4.52853C203.124 4.64205 202.827 4.77989 202.673 4.83665C202.344 4.96232 201.211 5.52985 201.065 5.65147C200.854 5.82173 200.594 5.96769 200.171 6.15823C199.099 6.64065 198.754 6.81091 198.604 6.94064C198.364 7.13928 197.991 7.38658 197.702 7.53252C197.284 7.73928 196.76 8.05956 196.269 8.4082C196.013 8.59063 195.599 8.85817 195.347 9.00816C195.095 9.1541 194.758 9.38924 194.596 9.53113C194.433 9.67302 194.198 9.84734 194.076 9.92436C193.633 10.1919 193.19 10.5 193.016 10.65C192.918 10.7392 192.476 11.0392 192.037 11.323C191.464 11.6919 191.188 11.8986 191.066 12.0405C190.855 12.2959 190.522 12.5473 190.153 12.7419C189.938 12.8513 189.767 12.9891 189.499 13.2648C189.3 13.4716 188.959 13.7635 188.735 13.9216C188.516 14.0756 188.224 14.3067 188.086 14.4324C187.952 14.554 187.732 14.7364 187.598 14.8337C187.464 14.931 187.119 15.2391 186.827 15.5229C186.538 15.8067 185.978 16.3094 185.588 16.6418C185.198 16.9742 184.475 17.6391 183.98 18.1174C183.489 18.5958 182.924 19.1431 182.721 19.3336C182.522 19.5241 182.014 20.0309 181.588 20.4606C181.166 20.8944 180.626 21.4133 180.39 21.616C180.159 21.8228 179.903 22.0619 179.826 22.1511C179.606 22.3984 179.216 22.7673 178.948 22.9741C178.814 23.0795 178.668 23.2092 178.623 23.266C178.469 23.4687 177.97 23.9714 177.722 24.1741C177.588 24.2876 177.393 24.4903 177.291 24.624C177.084 24.8997 176.686 25.293 176.39 25.5159C176.28 25.6011 176.077 25.7997 175.939 25.9619C175.695 26.2416 175.281 26.6348 175.042 26.8051C174.977 26.8497 174.867 26.9591 174.798 27.0524C174.652 27.2388 174.278 27.6281 173.888 27.9929C173.746 28.1267 173.523 28.378 173.397 28.5483C173.267 28.7186 173.027 28.9699 172.869 29.1037C172.451 29.4564 171.249 30.6523 170.977 30.9847C170.753 31.2564 170.262 31.682 170.038 31.7996C169.978 31.8279 169.795 32.0225 169.628 32.2252C169.466 32.4279 169.182 32.732 168.991 32.8941C168.804 33.0604 168.516 33.3441 168.353 33.5306C168.191 33.7171 167.927 33.9887 167.764 34.1306C167.602 34.2765 167.318 34.5603 167.131 34.7671C166.944 34.9738 166.656 35.2657 166.489 35.4157C166.323 35.5657 166.075 35.8333 165.933 36.0076C165.795 36.1819 165.543 36.4454 165.372 36.5954C165.206 36.7454 164.589 37.3413 164.008 37.9211C163.423 38.5008 162.814 39.0845 162.656 39.2143C162.493 39.344 162.27 39.567 162.16 39.7048C161.652 40.3453 160.174 41.8129 159.939 41.902C159.91 41.9102 159.788 42.0521 159.663 42.2102C159.468 42.4656 157.969 43.9777 157.506 44.3912C157.417 44.4723 157.21 44.6871 157.043 44.8695C156.877 45.056 156.596 45.3236 156.422 45.4696C156.247 45.6155 156.044 45.8182 155.975 45.9236C155.906 46.025 155.61 46.3452 155.313 46.6371C154.745 47.1965 154.034 48.0965 154.034 48.2506C154.038 48.4249 154.269 49.4141 154.33 49.5033C154.363 49.556 154.55 49.7506 154.745 49.9411C154.94 50.1316 155.256 50.4478 155.451 50.6505C155.833 51.0478 156.069 51.2829 156.373 51.5627C156.483 51.664 156.698 51.8829 156.852 52.0491C157.461 52.7099 158.058 53.3018 158.525 53.7194C158.798 53.9545 159.082 54.2383 159.163 54.3477C159.33 54.5707 159.809 55.041 160.105 55.2761C160.308 55.4342 160.93 56.0585 161.425 56.6017C161.839 57.0558 162.176 57.3801 162.473 57.6193C162.623 57.7369 162.883 57.9801 163.049 58.1544C163.216 58.3247 163.561 58.6733 163.813 58.9247C164.061 59.176 164.268 59.399 164.268 59.4193C164.268 59.4436 164.475 59.6382 164.723 59.8571C164.974 60.0801 165.255 60.3395 165.344 60.4408C165.758 60.903 166.01 61.1544 166.197 61.3003C166.31 61.3895 166.887 61.9368 167.48 62.5206C168.073 63.1043 168.682 63.6921 168.832 63.8219C168.987 63.9556 169.206 64.1908 169.324 64.3489C169.441 64.507 169.653 64.7462 169.791 64.8799C169.933 65.0137 170.152 65.2326 170.274 65.3624C170.575 65.6786 171.139 66.2421 172.15 67.2394C172.605 67.6853 173.088 68.1758 173.222 68.3299C173.356 68.4799 173.592 68.6988 173.754 68.8164C173.913 68.9339 174.225 69.2258 174.445 69.4691C174.664 69.7082 174.952 70.0082 175.086 70.1298C175.216 70.2515 175.427 70.4866 175.557 70.6568C175.687 70.8231 175.915 71.0785 176.069 71.2204C176.223 71.3623 176.569 71.6906 176.837 71.9501C177.105 72.2095 177.45 72.5298 177.604 72.6595C177.758 72.7933 177.941 72.992 178.014 73.1055C178.169 73.3406 178.619 73.7906 178.883 73.9649C178.981 74.0298 179.208 74.2446 179.383 74.4392C179.562 74.6379 179.858 74.9338 180.041 75.0959C180.228 75.2622 180.475 75.5095 180.597 75.6514C180.999 76.1176 182.437 77.5283 182.709 77.7189C182.855 77.8243 183.099 78.0067 183.245 78.1283C183.655 78.4648 183.696 78.4729 184.029 78.3067C184.906 77.8729 184.999 77.8081 185.414 77.3581C185.633 77.1189 186.047 76.6973 186.335 76.4175C186.624 76.1378 186.965 75.777 187.095 75.623C187.221 75.4649 187.623 75.0635 187.984 74.7311C188.756 74.0176 189.117 73.6689 189.511 73.2514C189.669 73.0852 190.007 72.7649 190.262 72.5419C190.859 72.019 191.192 71.6866 191.741 71.0623C192.26 70.4785 192.167 70.5717 193.032 69.7447C193.832 68.9826 195.538 67.2718 196.598 66.1732C197.008 65.7475 197.475 65.2894 197.629 65.1556C197.787 65.0218 198.06 64.7583 198.238 64.5678C198.417 64.3773 198.697 64.1097 198.86 63.9678C199.026 63.83 199.517 63.3516 199.956 62.9057C200.399 62.4597 201.113 61.7624 201.548 61.3571C202.401 60.5625 203.018 59.9382 204.07 58.8193C204.703 58.1463 206.275 56.5815 207.112 55.7991C207.554 55.3815 207.847 55.0937 208.326 54.591C208.517 54.3923 208.935 53.9748 209.26 53.6586C209.853 53.0789 211.132 51.7816 212.31 50.5654C213.045 49.7992 213.792 49.183 214.726 48.5627C214.974 48.4006 215.274 48.1735 215.396 48.056C215.518 47.9425 215.701 47.7925 215.802 47.7317C216.066 47.5614 218.166 46.5074 218.503 46.3776C218.828 46.2479 220.03 45.952 220.96 45.7695C221.305 45.7006 221.817 45.5993 222.097 45.5384L222.604 45.429L223.218 45.5141C223.555 45.5628 223.912 45.6358 224.01 45.6804C224.302 45.8101 224.992 45.9925 225.772 46.1506C226.844 46.3655 227.461 46.5722 227.868 46.8479C227.965 46.9168 228.306 47.1073 228.627 47.2776C229.265 47.6181 229.472 47.7519 229.833 48.056C229.967 48.1695 230.219 48.3398 230.394 48.433C230.804 48.6519 231.12 48.8992 231.445 49.2438C231.583 49.3938 231.937 49.7181 232.229 49.9654C233.155 50.7438 233.955 51.5667 234.962 52.7707C235.539 53.464 235.705 53.695 236.042 54.2748C236.193 54.5302 236.412 54.8666 236.53 55.0248C236.887 55.491 237.285 56.3747 237.549 57.2869C237.602 57.4815 237.728 57.8017 237.829 57.9963C238.122 58.5841 238.256 59.0585 238.402 60.0638C238.536 60.9719 238.536 61.653 238.402 62.5489C238.28 63.3759 238.178 63.6921 237.833 64.2921C237.703 64.5151 237.614 64.7583 237.492 65.2124C237.188 66.3394 236.891 67.0488 236.578 67.4056C236.371 67.6367 236.055 68.0704 235.791 68.4718C235.681 68.638 235.482 68.8974 235.34 69.0555C235.202 69.2096 235.003 69.4853 234.897 69.6636C234.771 69.8785 234.572 70.1258 234.304 70.3934C234.081 70.6163 233.793 70.9447 233.655 71.1231C233.391 71.4758 232.339 72.5663 231.827 73.0203C231.648 73.1744 231.38 73.4541 231.23 73.6365C230.995 73.9244 230.605 74.2771 230.312 74.4757C230.259 74.5081 230.109 74.6865 229.971 74.8689C229.732 75.1892 229.394 75.5095 229.086 75.704C229.005 75.7527 228.834 75.923 228.708 76.073C228.534 76.2919 226.978 77.8932 225.865 78.9999C225.277 79.5918 224.351 80.4674 224.16 80.6174C224.034 80.7147 223.839 80.9093 223.721 81.0472C223.453 81.3674 221.894 82.9323 221.646 83.135C221.545 83.2161 221.386 83.3863 221.301 83.5079C221.216 83.6296 220.895 83.9782 220.594 84.2782C220.294 84.5823 219.94 84.9511 219.81 85.1011C219.681 85.2471 219.408 85.5187 219.201 85.7011C218.994 85.8836 218.373 86.4795 217.812 87.0308C217.256 87.5781 216.712 88.0889 216.606 88.1659C216.501 88.2389 216.294 88.4578 216.143 88.6524C215.879 88.9808 214.811 90.0794 214.056 90.7848C213.865 90.9632 213.581 91.2389 213.427 91.397C212.164 92.6821 210.539 94.2672 210.336 94.401C210.149 94.5307 210.052 94.632 209.93 94.8388C209.735 95.1793 209.447 95.4793 209.097 95.7144C208.935 95.8239 208.712 96.0347 208.521 96.2577C207.859 97.0442 206.892 97.9563 206.45 98.2157C206.389 98.2522 206.145 98.5684 205.905 98.9171L205.475 99.5535L205.654 100.174C205.857 100.883 205.905 100.964 206.511 101.589C206.714 101.799 206.974 102.071 207.087 102.189C207.201 102.31 207.449 102.525 207.635 102.675C207.822 102.821 208.042 103.028 208.127 103.133C208.31 103.364 208.618 103.652 208.98 103.928C209.126 104.037 209.361 104.285 209.508 104.471C209.698 104.71 209.889 104.897 210.166 105.103C210.381 105.266 210.628 105.485 210.714 105.59C210.88 105.801 211.355 106.283 211.68 106.575C211.794 106.676 212.001 106.895 212.143 107.057C212.285 107.22 212.545 107.471 212.72 107.613C212.895 107.759 213.138 108.01 213.264 108.176C213.386 108.343 213.601 108.574 213.739 108.691C213.877 108.809 214.121 109.04 214.279 109.202C214.434 109.368 214.73 109.664 214.929 109.859C215.132 110.057 215.392 110.317 215.514 110.438C216.046 110.974 216.59 111.513 216.744 111.663C216.834 111.752 217.057 111.983 217.24 112.174C217.419 112.364 217.682 112.603 217.821 112.709C217.963 112.814 218.174 113.029 218.3 113.199C218.422 113.365 218.625 113.588 218.755 113.698C218.885 113.803 219.124 114.034 219.295 114.209C219.611 114.537 220.014 114.942 220.521 115.441C220.684 115.603 221.094 116.021 221.427 116.369C221.764 116.718 222.198 117.16 222.397 117.355C222.592 117.545 222.97 117.914 223.23 118.173C223.49 118.433 223.839 118.753 224.006 118.891C224.172 119.029 224.375 119.236 224.452 119.353C224.529 119.467 224.757 119.722 224.952 119.913C225.151 120.103 225.561 120.504 225.865 120.804C226.17 121.108 226.507 121.421 226.613 121.506C226.718 121.587 226.978 121.863 227.189 122.118C227.401 122.369 227.628 122.608 227.689 122.649C227.75 122.69 228.083 122.998 228.42 123.334C228.761 123.671 229.151 124.056 229.289 124.19C229.423 124.323 229.695 124.595 229.89 124.798C230.085 124.996 230.361 125.272 230.503 125.41C230.649 125.544 230.921 125.815 231.112 126.018C231.303 126.216 231.567 126.484 231.701 126.606C231.835 126.727 232.083 126.975 232.249 127.149C232.416 127.327 232.696 127.599 232.871 127.749C233.045 127.903 233.317 128.195 233.484 128.398C233.646 128.604 233.817 128.799 233.858 128.839C233.898 128.876 234.211 129.062 234.544 129.257L235.153 129.61L235.336 129.549C236.351 129.216 236.432 129.176 236.867 128.811C237.098 128.616 237.456 128.272 237.663 128.049C237.866 127.822 238.333 127.344 238.69 126.987C239.052 126.63 239.482 126.192 239.645 126.014C239.807 125.835 240.075 125.572 240.233 125.426C240.392 125.28 240.66 125.008 240.822 124.818C241.204 124.388 241.241 124.348 241.744 123.906C241.976 123.703 242.455 123.217 242.816 122.819C243.174 122.422 243.6 121.992 243.758 121.863C243.917 121.733 244.258 121.408 244.514 121.145C244.77 120.877 245.403 120.253 245.923 119.75C247.056 118.652 249.119 116.552 249.57 116.033C249.748 115.83 250.085 115.514 250.321 115.328C250.557 115.145 250.865 114.865 251.011 114.707C251.158 114.553 251.576 114.124 251.945 113.755C252.315 113.386 252.851 112.814 253.135 112.486C253.42 112.161 253.753 111.821 253.87 111.732C254.484 111.27 254.91 110.852 255.811 109.847C256.047 109.583 256.421 109.21 256.64 109.011C256.859 108.817 257.16 108.529 257.306 108.375C257.452 108.221 257.85 107.824 258.191 107.487C258.926 106.77 260.937 104.763 261.347 104.337C261.505 104.175 261.854 103.871 262.118 103.668C262.459 103.405 262.691 103.19 262.886 102.943C263.194 102.562 264.348 101.447 264.92 100.968C265.123 100.802 265.322 100.628 265.367 100.575C265.509 100.417 265.923 100.105 266.342 99.8454C266.565 99.7076 266.857 99.4887 266.992 99.363C267.402 98.9738 267.747 98.7711 268.571 98.4387C268.815 98.3414 269.12 98.1995 269.249 98.1225C269.725 97.8306 270.33 97.5833 271.093 97.3604C271.52 97.2387 272.104 97.0685 272.393 96.9833L272.921 96.8293L274.159 96.8252C275.678 96.8252 276.23 96.8982 276.953 97.1901C277.847 97.5509 278.943 98.0374 279.459 98.3009C279.747 98.4509 280.178 98.6617 280.413 98.7711C280.901 98.9941 281.104 99.1238 281.449 99.4198C281.583 99.5333 281.778 99.6833 281.879 99.7522C282.139 99.9306 283.004 100.616 283.504 101.041C284.19 101.625 285.445 102.886 286.216 103.762C286.919 104.56 287.134 104.872 287.557 105.663C287.626 105.797 287.804 106.052 287.946 106.23C288.389 106.774 288.811 107.67 289.372 109.23C289.611 109.895 289.863 111.545 289.9 112.676L289.924 113.406L289.762 114.034C289.672 114.379 289.559 114.926 289.51 115.251C289.412 115.883 289.092 116.941 288.852 117.415C288.612 117.89 288.239 118.518 288.028 118.798C287.91 118.952 287.707 119.272 287.577 119.507C287.268 120.067 287.081 120.342 286.809 120.634C286.683 120.768 286.476 121.019 286.342 121.194C286.208 121.364 285.94 121.672 285.745 121.875C285.546 122.077 285.315 122.333 285.226 122.446C285.14 122.556 284.608 123.115 284.048 123.683C283.487 124.25 282.813 124.956 282.553 125.248C282.293 125.539 281.778 126.058 281.4 126.403C281.026 126.744 280.555 127.198 280.352 127.412C279.893 127.899 279.28 128.511 278.423 129.342C278.054 129.699 277.432 130.327 277.043 130.737C276.653 131.146 276.096 131.689 275.812 131.945C275.528 132.2 275.049 132.683 274.748 133.023C274.301 133.53 273.347 134.45 273.221 134.499C273.205 134.507 272.977 134.758 272.718 135.058C272.458 135.358 271.865 135.954 271.406 136.384C270.943 136.814 270.326 137.434 270.029 137.758C269.733 138.082 269.294 138.524 269.055 138.731C268.518 139.197 267.877 139.834 267.255 140.507C266.837 140.965 266.52 141.273 265.318 142.412C265.119 142.603 264.79 142.943 264.591 143.17C264.388 143.397 263.909 143.872 263.519 144.228C263.129 144.581 262.756 144.942 262.687 145.031C262.508 145.266 258.93 148.83 258.504 149.194C258.305 149.369 257.655 150.009 257.062 150.617C256.469 151.225 255.811 151.882 255.596 152.073C255.381 152.267 254.947 152.713 254.634 153.066C254.272 153.475 253.887 153.856 253.582 154.112C253.318 154.331 252.948 154.675 252.758 154.874C252.315 155.344 250.934 156.723 250.463 157.169C250.09 157.521 248.567 159.07 247.722 159.95C247.466 160.221 247.08 160.582 246.869 160.752C246.658 160.927 246.374 161.198 246.236 161.356C245.756 161.92 244.83 162.779 244.396 163.067L243.978 163.343L243.36 163.294C243.023 163.262 242.711 163.221 242.666 163.197C242.398 163.063 241.444 162.22 240.749 161.506C240.522 161.271 240.282 161.028 240.217 160.963C240.152 160.898 239.848 160.598 239.543 160.294C238.885 159.637 238.918 159.67 238.451 159.236C238.252 159.046 237.996 158.786 237.89 158.66C237.785 158.535 237.569 158.32 237.415 158.186C237.257 158.052 236.968 157.756 236.769 157.529C236.453 157.164 236.343 157.067 235.807 156.715C235.474 156.496 235.181 156.317 235.157 156.317C235.133 156.317 234.848 156.39 234.524 156.479C233.951 156.637 233.935 156.646 233.719 156.852C233.598 156.97 233.427 157.169 233.338 157.29C233.248 157.412 232.928 157.76 232.631 158.06C232.331 158.36 231.717 158.985 231.267 159.443C230.812 159.901 230.357 160.335 230.255 160.404C230.15 160.473 229.951 160.663 229.809 160.825C229.667 160.983 229.415 161.247 229.252 161.401C228.379 162.248 227.132 163.497 226.994 163.671C226.905 163.777 226.706 163.963 226.548 164.081C226.223 164.324 225.865 164.685 225.687 164.948C225.622 165.045 225.447 165.236 225.297 165.374C225.147 165.512 224.875 165.791 224.692 165.994C224.513 166.201 224.233 166.468 224.07 166.59C223.908 166.712 223.668 166.93 223.538 167.085C223.404 167.235 223.153 167.494 222.978 167.664C222.385 168.236 222.081 168.548 221.264 169.412C220.818 169.882 220.359 170.34 220.245 170.425C220.131 170.51 219.912 170.725 219.758 170.899C219.603 171.074 219.331 171.353 219.157 171.52C218.978 171.686 218.592 172.059 218.3 172.351C218.003 172.638 217.654 172.979 217.524 173.101C217.39 173.222 217.175 173.457 217.049 173.615C216.919 173.778 216.708 173.988 216.582 174.082C216.164 174.394 215.875 174.653 215.709 174.88C215.619 175.006 215.408 175.233 215.242 175.391C215.079 175.545 214.815 175.825 214.657 176.007C214.499 176.194 214.251 176.437 214.101 176.555C213.727 176.847 213.512 177.049 213.26 177.365C213.138 177.515 212.915 177.738 212.765 177.86C212.379 178.172 212.229 178.318 212.009 178.59C211.782 178.873 210.434 180.215 210.214 180.382C210.015 180.532 209.682 180.884 209.544 181.095C209.398 181.318 209.134 181.586 208.817 181.837C208.671 181.95 208.48 182.129 208.391 182.226C208.301 182.323 208.033 182.595 207.798 182.83C207.562 183.065 207.254 183.394 207.108 183.56C206.807 183.909 206.681 184.03 206.401 184.249C206.092 184.484 205.881 184.727 205.711 185.04C205.625 185.194 205.459 185.473 205.337 185.66L205.118 185.996L205.333 186.629L205.544 187.257L205.832 187.533C205.987 187.687 206.218 187.89 206.34 187.983C206.624 188.206 207.83 189.377 208.131 189.722C208.257 189.868 208.529 190.131 208.736 190.31C208.943 190.488 209.199 190.744 209.301 190.877C209.678 191.376 210.048 191.785 210.206 191.891C210.49 192.077 211.079 192.633 211.404 193.018C211.802 193.484 212.066 193.747 212.549 194.145C212.756 194.319 213.024 194.579 213.142 194.72C213.39 195.016 213.642 195.272 214.547 196.127C214.913 196.472 215.311 196.861 215.437 196.987C215.559 197.116 215.835 197.388 216.046 197.595C216.257 197.801 216.57 198.114 216.736 198.292C217.467 199.066 218.568 200.165 218.86 200.412C219.035 200.558 219.331 200.854 219.514 201.069C219.701 201.284 219.949 201.547 220.066 201.661C220.55 202.111 221.581 203.161 221.735 203.351C221.882 203.538 222.491 204.097 222.816 204.345C222.889 204.401 223.039 204.559 223.149 204.697C223.254 204.835 223.482 205.078 223.644 205.236C223.811 205.399 224.237 205.812 224.594 206.157C224.952 206.505 225.285 206.817 225.338 206.854C225.386 206.886 225.528 207.036 225.646 207.186C226.036 207.665 228.424 210.04 229.037 210.559C229.183 210.681 229.35 210.851 229.415 210.94C229.569 211.155 230.125 211.719 230.637 212.177C230.873 212.388 231.242 212.765 231.462 213.008C231.929 213.531 232.371 213.973 232.72 214.265C232.859 214.378 233.09 214.617 233.236 214.796C233.382 214.974 233.927 215.529 234.446 216.032C234.962 216.535 235.462 217.025 235.555 217.127C235.681 217.269 236.416 217.998 236.737 218.302C236.761 218.323 236.997 218.554 237.265 218.817C237.529 219.081 238.061 219.596 238.438 219.965C238.816 220.333 239.202 220.714 239.291 220.812C239.385 220.909 239.612 221.16 239.803 221.367C240.209 221.805 242.114 223.641 242.451 223.917L242.686 224.108L243.32 224.185L243.953 224.262L244.437 223.909C244.81 223.637 245.111 223.358 245.769 222.685C246.236 222.202 246.816 221.586 247.056 221.31C247.3 221.039 247.754 220.593 248.067 220.317C248.38 220.046 248.806 219.644 249.013 219.425C249.225 219.21 249.517 218.919 249.663 218.777C249.813 218.639 250.739 217.723 251.726 216.742C253.493 214.982 254.358 214.135 254.873 213.661C255.02 213.527 255.243 213.275 255.373 213.105C255.503 212.931 255.799 212.611 256.039 212.396C256.62 211.861 257.416 211.066 257.83 210.608C258.017 210.401 258.321 210.105 258.504 209.951C258.691 209.797 258.93 209.574 259.036 209.457C259.6 208.853 263.722 204.705 264.23 204.235C264.364 204.113 264.624 203.878 264.807 203.716C264.989 203.55 265.294 203.234 265.485 203.007C265.676 202.78 266.005 202.439 266.22 202.249C266.63 201.892 267.576 200.939 267.917 200.538C268.027 200.412 268.238 200.214 268.384 200.096C268.872 199.695 269.038 199.541 269.331 199.2C269.668 198.811 270.545 197.911 271.706 196.772C272.149 196.334 272.953 195.531 273.489 194.992C274.025 194.453 274.598 193.893 274.764 193.752C274.927 193.61 275.227 193.289 275.426 193.038C275.861 192.491 276.08 192.256 276.437 191.972C276.584 191.854 277.095 191.376 277.575 190.906C278.054 190.439 278.561 189.957 278.708 189.835C278.854 189.714 279.491 189.089 280.129 188.445C281.851 186.702 282.354 186.199 282.647 185.923C282.793 185.79 283.26 185.327 283.682 184.898C284.109 184.472 284.62 183.981 284.819 183.811C285.022 183.641 285.331 183.321 285.518 183.094C285.701 182.867 286.03 182.514 286.249 182.315C286.602 181.991 287.041 181.553 288.219 180.357C288.401 180.167 288.686 179.911 288.844 179.794C288.998 179.672 289.201 179.473 289.291 179.352C289.465 179.109 292.048 176.53 292.487 176.161C292.637 176.032 292.946 175.715 293.177 175.456C293.697 174.868 294.607 173.956 294.952 173.68C295.098 173.563 295.289 173.372 295.378 173.259C295.772 172.752 295.995 172.517 296.422 172.156C296.674 171.941 297.12 171.528 297.409 171.228C298.436 170.182 298.631 169.995 298.875 169.809C299.013 169.707 299.236 169.476 299.374 169.302C299.805 168.747 304.235 164.336 304.954 163.744C305.218 163.529 305.433 163.306 305.596 163.087C305.73 162.905 306.018 162.589 306.233 162.386C306.834 161.814 307.655 160.987 307.882 160.716C308.162 160.383 308.471 160.087 308.808 159.816C308.966 159.69 309.169 159.504 309.259 159.402C309.352 159.301 309.624 159.025 309.868 158.79C310.112 158.555 310.968 157.7 311.777 156.889C312.585 156.078 313.535 155.125 313.888 154.773C314.238 154.42 314.526 154.116 314.526 154.092C314.526 154.071 314.696 153.905 314.904 153.723C315.107 153.54 315.419 153.228 315.59 153.029C315.951 152.612 315.919 152.644 316.313 152.304C316.873 151.825 317.576 151.112 317.953 150.642C318.161 150.382 318.518 149.993 318.745 149.77C318.973 149.547 319.346 149.13 319.574 148.838C319.801 148.55 320.175 148.12 320.402 147.885C320.869 147.403 320.93 147.334 321.218 146.912C321.336 146.746 321.531 146.498 321.657 146.365C321.783 146.231 322.006 145.955 322.161 145.757C322.311 145.554 322.579 145.226 322.754 145.027C322.932 144.824 323.18 144.516 323.31 144.338C323.436 144.159 323.688 143.851 323.862 143.657C324.041 143.458 324.28 143.142 324.398 142.947C324.723 142.404 325.109 141.861 325.405 141.54C325.669 141.249 325.722 141.168 326.12 140.466C326.226 140.276 326.425 139.976 326.563 139.797C326.701 139.619 327.001 139.181 327.233 138.824C327.643 138.196 327.818 137.932 328.069 137.568C328.138 137.474 328.301 137.191 328.435 136.939C328.569 136.692 328.776 136.364 328.89 136.218C329.174 135.857 329.235 135.735 329.454 135.123C329.657 134.543 329.885 134.13 330.271 133.619C330.514 133.299 330.555 133.21 330.811 132.492C331.103 131.665 331.257 131.312 331.542 130.818C332.082 129.889 332.155 129.731 332.39 129.014C332.52 128.612 332.667 128.114 332.715 127.907C332.829 127.425 332.935 127.125 333.235 126.419C333.515 125.767 333.759 125.089 333.962 124.396C334.039 124.129 334.149 123.8 334.206 123.667C334.267 123.521 334.364 123.095 334.445 122.629C334.518 122.195 334.628 121.619 334.689 121.352C334.746 121.084 334.839 120.638 334.892 120.359C335.038 119.588 335.176 118.976 335.339 118.372C335.42 118.072 335.509 117.723 335.542 117.602C335.643 117.213 335.68 116.73 335.729 115.19C335.785 113.292 335.753 109.956 335.664 108.93C335.595 108.12 335.525 107.734 335.253 106.656C335.152 106.267 335.018 105.626 334.949 105.237C334.669 103.599 334.502 102.853 333.848 100.251C333.686 99.6022 333.572 99.3062 333.028 98.1225C332.943 97.9441 332.731 97.336 332.553 96.7725C332.09 95.2969 331.919 94.8793 331.594 94.4253C331.383 94.1253 331.221 93.7807 331.079 93.3104C330.9 92.7145 330.616 92.0618 330.469 91.8997C330.076 91.4618 329.84 91.0524 329.487 90.1605C329.345 89.8078 329.17 89.4673 328.991 89.1875C328.837 88.9524 328.634 88.62 328.536 88.4497C328.443 88.2795 328.236 87.9633 328.082 87.7443C327.923 87.5295 327.728 87.2376 327.647 87.0957C327.298 86.4998 326.806 85.7376 326.603 85.4741C326.482 85.316 326.291 85.016 326.181 84.7971C325.958 84.3714 325.771 84.112 325.389 83.7106C325.251 83.5647 325.044 83.2809 324.922 83.0823C324.597 82.5309 324.289 82.1012 323.992 81.7769C323.846 81.6188 323.635 81.335 323.525 81.1485C323.212 80.6175 323.103 80.4675 322.81 80.1634C322.66 80.0053 322.449 79.7621 322.339 79.6161C322.23 79.4702 321.978 79.1783 321.775 78.9675C321.572 78.7567 321.279 78.4162 321.125 78.2175C320.967 78.0148 320.715 77.7108 320.557 77.5324C320.248 77.1878 320.219 77.1473 319.643 76.4013C319.428 76.1257 319.127 75.7892 318.969 75.6554C318.623 75.3554 318.392 75.1 318.156 74.7554C318.063 74.6135 317.884 74.4189 317.767 74.3257C317.649 74.2325 317.397 73.9852 317.206 73.7784C317.015 73.5676 316.65 73.1865 316.39 72.9311C316.13 72.6717 315.829 72.3555 315.72 72.2257C315.614 72.096 315.362 71.8649 315.159 71.7109C314.814 71.4474 313.498 70.1866 313.04 69.6839C312.93 69.5623 312.686 69.3434 312.495 69.1974C312.305 69.0515 311.915 68.7069 311.622 68.4272C311.334 68.1475 310.879 67.7299 310.615 67.4948C310.351 67.2596 309.969 66.9191 309.762 66.7326C309.555 66.5502 309.263 66.311 309.104 66.2056C308.95 66.1043 308.71 65.9137 308.576 65.7921C308.442 65.6705 308.195 65.4597 308.028 65.3259C307.862 65.1962 307.541 64.9124 307.318 64.6975C307.094 64.4786 306.717 64.1746 306.481 64.0165C306.241 63.8584 305.912 63.607 305.75 63.4529C305.584 63.2989 305.36 63.1246 305.246 63.0557C304.978 62.9016 304.686 62.6949 304.434 62.4881C303.793 61.953 303.269 61.576 302.692 61.2476C302.562 61.1706 302.331 61.0003 302.176 60.8665C301.884 60.6111 301.811 60.5625 300.905 60.0557C300.597 59.8814 300.247 59.6625 300.134 59.5693C299.703 59.2206 299.167 58.8557 298.972 58.7787C298.696 58.6693 298.31 58.4747 298.062 58.3166C297.79 58.1423 296.856 57.599 296.397 57.3517C296.203 57.2423 295.983 57.1125 295.91 57.0598C295.719 56.9139 295.504 56.8004 294.992 56.5774C294.586 56.4031 293.912 56.0707 293.189 55.6896C292.958 55.568 292.231 55.2842 291.22 54.9234C290.854 54.7937 290.424 54.6112 290.257 54.5221C289.79 54.2667 289.246 54.0396 288.698 53.8694C287.609 53.5329 286.614 53.2451 285.896 53.0626C285.116 52.864 284.572 52.6532 284.186 52.4059C283.792 52.1545 282.838 51.0073 282.631 50.537C282.448 50.1276 282.318 49.633 282.196 48.8911C282.021 47.8249 281.782 47.0101 281.534 46.633C281.229 46.1749 281.051 45.7452 280.779 44.7804C280.401 43.4669 280.348 43.329 280.044 42.8628C279.723 42.3723 279.049 41.0264 278.468 39.7251C278.289 39.3278 278.025 38.8981 277.7 38.4724C277.53 38.2454 277.237 37.6657 277.079 37.236C276.904 36.7657 276.71 36.4373 276.401 36.0968C276.06 35.7238 275.743 35.2211 275.552 34.7549C275.422 34.4346 275.369 34.3576 275.077 34.0657C274.858 33.8468 274.679 33.6198 274.537 33.3766C274.232 32.8536 274.066 32.6023 273.847 32.3225C273.741 32.1888 273.461 31.8077 273.225 31.4753C272.99 31.1469 272.705 30.7658 272.596 30.628C272.275 30.2428 272.039 29.9185 271.844 29.6104C271.747 29.4523 271.544 29.1929 271.394 29.0307C271.243 28.8686 271.012 28.5848 270.886 28.4023C270.76 28.2199 270.46 27.8672 270.22 27.624C269.98 27.3767 269.753 27.1132 269.712 27.0362C269.57 26.7605 269.107 26.2051 268.661 25.7754C268.372 25.4997 268.084 25.1713 267.877 24.8794C267.633 24.543 267.333 24.2106 266.723 23.6106C266.273 23.1646 265.733 22.5849 265.521 22.3214C265.31 22.0619 265.119 21.8471 265.099 21.8471C265.075 21.8471 264.494 21.2876 263.812 20.6025C263.125 19.9174 262.439 19.2485 262.281 19.1188C262.126 18.989 261.749 18.6404 261.448 18.3485C261.144 18.0526 260.725 17.6674 260.518 17.4891C260.307 17.3107 259.889 16.9256 259.584 16.6296C259.28 16.3377 258.951 16.0377 258.849 15.9648C258.646 15.8188 257.952 15.1945 257.326 14.5945C257.091 14.3675 256.725 14.0716 256.453 13.8932C256.165 13.7027 255.876 13.4675 255.698 13.2811C255.511 13.0865 255.243 12.8716 254.946 12.677C254.691 12.5108 254.362 12.2756 254.22 12.154C254.073 12.0324 253.781 11.8013 253.57 11.6432C253.359 11.4811 253.022 11.2135 252.819 11.0433C252.25 10.5649 251.722 10.1798 251.255 9.89598C251.019 9.75409 250.735 9.56759 250.626 9.48246C250.512 9.40138 250.337 9.28789 250.24 9.23924C249.972 9.10546 249.395 8.72844 249.164 8.53385C248.965 8.36763 248.701 8.20142 248.23 7.94196C247.592 7.58927 247.255 7.3663 246.82 7.0055C246.621 6.84334 246.451 6.74604 246.191 6.64875C245.537 6.40551 244.798 6.02037 244.473 5.75281C244.307 5.61498 244.104 5.46905 244.022 5.42445C243.848 5.33932 242.735 4.8934 242.503 4.82043C242.309 4.75962 241.716 4.47177 241.63 4.39474C241.598 4.36636 241.224 4.18394 240.798 3.9934C240.376 3.80287 239.77 3.51908 239.458 3.36097C238.954 3.10962 238.824 3.06504 238.3 2.95153C237.98 2.88261 237.586 2.78125 237.427 2.7245C237.098 2.60693 236.347 2.2502 235.9 1.9948C235.397 1.71102 235.238 1.67049 233.447 1.41914C232.98 1.35428 232.457 1.26914 232.29 1.23265C231.888 1.14752 230.881 0.83131 230.528 0.67726C230.081 0.482669 229.187 0.344833 227.498 0.202944C225.528 0.0367317 224.424 -0.00381928 221.995 0.00023469C220.322 0.00428866 219.733 0.0205133 218.645 0.0975387Z" fill="white"/>
<path d="M88.2249 10.4355C88.0868 10.5368 87.2827 11.299 86.6614 11.9152C86.3365 12.2395 85.9629 12.5922 85.8329 12.7016C85.703 12.8111 85.4715 13.0624 85.3131 13.2611C85.1588 13.4557 84.9273 13.703 84.8014 13.8043C84.4887 14.0597 84.1598 14.3759 83.9486 14.6273C83.8512 14.7408 83.6603 14.9273 83.5222 15.0408C83.3841 15.1543 83.108 15.4381 82.9049 15.6691C82.7059 15.9002 82.4217 16.184 82.2755 16.2975C82.0481 16.4799 81.1465 17.3718 80.1028 18.4502C79.9241 18.6366 79.6642 18.8839 79.5221 19.0055C79.384 19.1231 79.1688 19.3542 79.051 19.5163C78.9292 19.6785 78.7343 19.8893 78.6205 19.9866C78.0601 20.4609 77.922 20.5866 77.7474 20.8136C77.5241 21.1055 76.1514 22.4312 75.8875 22.6136C75.7088 22.7352 75.4732 22.9947 75.1078 23.4649C75.0184 23.5825 74.8357 23.7609 74.7017 23.8663C74.3768 24.1176 72.9676 25.5284 72.6996 25.8689C72.5818 26.0189 72.3219 26.2703 72.1229 26.4284C71.9239 26.5865 71.6112 26.8905 71.4325 27.1013C71.2538 27.3121 71.0873 27.4824 71.063 27.4824C71.0386 27.4824 70.73 27.7702 70.3807 28.1189C70.0274 28.4716 69.6172 28.8648 69.467 28.9986C69.3167 29.1283 69.0974 29.3675 68.9797 29.5256C68.8619 29.6837 68.671 29.8986 68.5532 29.9959C68.0619 30.4134 67.9197 30.5593 67.7126 30.831C67.5948 30.9931 67.3471 31.2485 67.1603 31.4026C66.9735 31.5607 66.6608 31.8647 66.4618 32.0796C66.2628 32.2945 65.9989 32.5539 65.873 32.6472C65.7471 32.7445 65.4912 33.0079 65.3085 33.2309C65.1257 33.4498 64.8618 33.7215 64.7196 33.8309C64.4272 34.0579 62.9571 35.5173 62.7257 35.8133C62.5307 36.0565 62.3602 36.2227 62.0028 36.5065C61.8526 36.6281 61.6454 36.8308 61.5398 36.9565C61.4302 37.0862 61.1865 37.3416 60.9957 37.5241C60.5733 37.9295 60.6667 37.8362 60.151 38.3673C59.9114 38.6105 59.5987 38.9105 59.4565 39.0322C59.3144 39.1538 59.0951 39.3848 58.9692 39.547C58.8393 39.7092 58.6281 39.9281 58.4981 40.0375C58.3641 40.1429 58.1083 40.3862 57.9296 40.5727C57.2717 41.2537 56.0656 42.4253 55.8625 42.5753C55.5498 42.8104 55.4524 42.9118 55.1234 43.3334C54.961 43.5442 54.766 43.7631 54.6929 43.8199C54.6199 43.8726 54.3396 44.1361 54.0716 44.4077C53.8036 44.6753 53.4665 44.9955 53.3203 45.1172C53.1741 45.2388 52.9548 45.4496 52.833 45.5834C52.4716 45.9766 52.2238 46.2158 51.8827 46.4915C51.7081 46.6374 51.4726 46.8644 51.3629 46.9982C51.1111 47.2982 49.7791 48.6157 49.5761 48.7657C49.4014 48.8914 49.0441 49.2806 48.7638 49.6454C48.6623 49.7792 48.4471 49.9941 48.2928 50.1157C48.1344 50.2414 47.8907 50.4765 47.7527 50.6387C47.4521 50.9751 47.1313 51.3035 46.7008 51.7089C46.5343 51.867 46.3029 52.094 46.1851 52.2157C46.0714 52.3373 45.844 52.5602 45.6775 52.7183C45.511 52.8724 45.2714 53.1318 45.1455 53.294C45.0196 53.4521 44.7759 53.7075 44.6013 53.8616C44.252 54.1697 43.9596 54.4534 43.7119 54.7251C43.6226 54.8264 43.3952 55.0413 43.2124 55.2075C43.0256 55.3737 42.7576 55.6494 42.6114 55.8237C42.4692 55.998 42.185 56.2737 41.9819 56.4318C41.7789 56.5939 41.4824 56.8737 41.324 57.0561C41.1657 57.2385 40.8895 57.5142 40.7108 57.6723C40.5321 57.8304 40.2519 58.1061 40.0854 58.2926C39.9189 58.475 39.6631 58.7182 39.5169 58.8358C39.3707 58.9533 39.1392 59.1844 39.0052 59.3506C38.7372 59.679 38.5016 59.9182 38.0549 60.3155C37.8925 60.4574 37.6447 60.7168 37.5026 60.8952C37.3605 61.0736 37.1371 61.3087 37.0072 61.4222C36.8772 61.5317 36.5604 61.8357 36.3046 62.0952C36.0447 62.3546 35.7239 62.6668 35.5939 62.7844C35.4599 62.9019 35.2772 63.0924 35.1878 63.21C35.0619 63.3762 34.3431 64.1222 33.5309 64.9289C32.605 65.8532 32.142 66.2951 31.9593 66.4289C31.8375 66.518 31.6182 66.7167 31.472 66.8707C31.3258 67.0207 30.9968 67.3572 30.7329 67.6126C30.473 67.8721 30.1481 68.2167 30.0141 68.3748C29.876 68.5369 29.6364 68.7721 29.4821 68.8937C29.3278 69.0194 29.0516 69.2991 28.8689 69.522C28.678 69.7531 28.3775 70.0531 28.1663 70.2274C27.7764 70.5437 27.7439 70.5761 27.4394 70.9653C27.3297 71.1031 27.1307 71.3058 26.9967 71.4112C26.8627 71.5206 26.5662 71.8004 26.3348 72.0355C26.1074 72.2706 25.7743 72.599 25.5957 72.7652C25.417 72.9314 25.1733 73.2071 25.0474 73.3733C24.9256 73.5395 24.6535 73.8314 24.4423 74.022C24.2352 74.2125 24.0403 74.3868 24.0119 74.4152C23.9834 74.4395 23.8535 74.5936 23.7235 74.7598C23.5895 74.926 23.3824 75.149 23.2524 75.2544C23.1266 75.3638 22.8545 75.6516 22.6514 75.8949C22.4443 76.1422 22.1722 76.426 22.0504 76.5314C21.8067 76.7341 21.5671 76.9895 21.3803 77.2449C21.3153 77.334 21.0595 77.6178 20.8158 77.8732C20.5681 78.1286 20.2838 78.4529 20.1864 78.5908C20.0239 78.8259 19.6909 79.1705 19.4473 79.3529C19.3904 79.3975 19.2564 79.5637 19.1467 79.7178C18.8665 80.1232 18.5944 80.4597 18.3752 80.6705C18.2696 80.7718 18.0909 80.9705 17.9772 81.1164C17.8635 81.2623 17.5589 81.6231 17.299 81.9191C16.4746 82.8677 16.4015 82.9569 16.17 83.3055C16.0441 83.4961 15.7842 83.8204 15.5933 84.0231C15.374 84.2623 15.1669 84.5379 15.0329 84.7771C14.9152 84.9839 14.6999 85.2879 14.5578 85.4541C14.4156 85.6204 14.1963 85.896 14.0745 86.0622C13.9527 86.2285 13.7496 86.4839 13.6278 86.6298C13.2055 87.1203 12.9618 87.4609 12.5679 88.1054C12.3242 88.5108 12.0765 88.8595 11.9059 89.0419C11.7069 89.2527 11.5567 89.4757 11.3577 89.8446C11.0775 90.3757 10.9719 90.5459 10.3343 91.5148C10.1313 91.827 9.91196 92.1756 9.85105 92.2891C9.79013 92.4026 9.63581 92.6337 9.50992 92.7959C9.38809 92.9621 9.16879 93.3026 9.02666 93.558C8.88452 93.8094 8.69365 94.1256 8.60431 94.2553C8.46217 94.4661 8.36877 94.6283 8.00328 95.3256C7.94642 95.435 7.80835 95.7188 7.69464 95.9539C7.51595 96.335 7.26823 96.7931 6.88243 97.4539C6.80933 97.5755 6.6672 97.8877 6.56161 98.1431C6.45602 98.3985 6.32201 98.7147 6.26516 98.8484C6.14739 99.1201 5.71692 99.8863 5.5829 100.069C5.37579 100.344 5.05091 101.127 4.60419 102.42C4.52703 102.643 4.29149 103.182 4.08032 103.616C3.80417 104.192 3.65797 104.544 3.55645 104.913C3.38995 105.497 3.21532 106.02 3.08537 106.312C2.98384 106.535 2.90668 106.774 2.69957 107.475C2.5087 108.12 2.23255 108.85 2.01732 109.279C1.91985 109.474 1.81833 109.701 1.79396 109.778C1.74117 109.94 1.61934 110.641 1.52187 111.318C1.36755 112.401 0.746214 115.648 0.587834 116.195C0.376661 116.913 0.112694 118.907 0.0395951 120.318C-0.0131983 121.32 -0.0131983 125.256 0.0395951 126.744C0.108633 128.702 0.250769 130.303 0.429454 131.163C0.461942 131.317 0.551285 131.637 0.624384 131.872C0.701543 132.107 0.811191 132.517 0.868045 132.784C0.928961 133.052 1.01018 133.425 1.05485 133.615C1.09546 133.806 1.18074 134.288 1.2376 134.69C1.50157 136.494 1.68431 137.365 1.97265 138.156C2.27722 138.991 2.51682 139.729 2.76049 140.576C2.87013 140.957 3.04882 141.484 3.16253 141.752C3.27218 142.015 3.43868 142.485 3.53614 142.798C3.69858 143.333 3.84884 143.673 4.28337 144.472C4.3849 144.658 4.53922 145.052 4.63262 145.343C4.82755 145.96 5.22959 147.087 5.37173 147.403C5.42452 147.524 5.55041 147.747 5.65194 147.906C5.87936 148.254 6.22048 148.955 6.49257 149.62C6.67532 150.07 6.84994 150.403 7.32508 151.169C7.49159 151.445 8.0317 152.446 8.38501 153.135C8.49872 153.362 8.77487 153.784 9.00635 154.092C9.33936 154.534 9.49774 154.797 9.80638 155.409C10.0703 155.945 10.2775 156.293 10.4805 156.561C10.6429 156.772 10.9922 157.29 11.2602 157.716C11.5283 158.138 11.8125 158.559 11.8978 158.649C12.1293 158.9 12.2755 159.103 12.4907 159.48C13.0024 160.376 13.9486 161.681 14.5172 162.277C14.7811 162.552 15.0573 162.95 15.2482 163.327C15.3172 163.469 15.4999 163.684 15.7517 163.935C15.971 164.15 16.2025 164.405 16.2675 164.507C16.4746 164.831 16.7386 165.167 17.0106 165.459C17.1568 165.617 17.4736 165.982 17.7132 166.27C17.9487 166.562 18.3061 166.988 18.5051 167.223C18.7 167.458 18.9802 167.794 19.1264 167.973C19.2726 168.151 19.5732 168.488 19.7965 168.723C20.0239 168.958 20.2879 169.25 20.3854 169.371C20.4828 169.493 20.7224 169.76 20.9174 169.967C21.1123 170.17 21.36 170.462 21.4656 170.616C21.5712 170.766 21.9042 171.139 22.2088 171.443C23.2768 172.509 23.6992 172.963 23.886 173.243C24.089 173.551 24.223 173.685 24.5723 173.94C24.6982 174.033 24.9053 174.232 25.0393 174.382C25.1693 174.536 25.4332 174.808 25.62 174.986C26.3997 175.724 27.4069 176.758 27.6221 177.037C27.7927 177.26 27.9389 177.394 28.4018 177.763C28.5318 177.864 28.7145 178.055 28.8161 178.189C29.1531 178.647 29.3399 178.841 29.5958 179.02C29.7379 179.117 29.9572 179.312 30.0831 179.453C30.209 179.595 30.408 179.798 30.5176 179.899C30.6313 180.005 30.9887 180.353 31.3136 180.678C31.6385 181.002 32.0243 181.363 32.1664 181.48C32.3126 181.594 32.5766 181.858 32.7512 182.068C32.9258 182.275 33.1776 182.535 33.3116 182.644C33.4416 182.753 33.6568 182.972 33.7908 183.13C34.1279 183.536 34.266 183.67 34.5015 183.848C34.7858 184.059 35.0782 184.347 35.2772 184.618C35.3706 184.744 35.5899 184.971 35.7645 185.125C35.9391 185.279 36.1787 185.506 36.3005 185.628C36.4183 185.749 36.7229 186.061 36.9747 186.317C37.2224 186.572 37.4985 186.872 37.5838 186.986C37.8356 187.31 38.0549 187.529 38.2945 187.695C38.5219 187.849 38.7859 188.117 39.1798 188.587C39.2976 188.729 39.4722 188.895 39.5656 188.956C39.7849 189.106 39.9798 189.288 40.1829 189.54C40.4144 189.828 41.8926 191.295 42.12 191.465C42.2256 191.542 42.4165 191.725 42.5464 191.871C42.6764 192.017 42.9322 192.28 43.1231 192.459C43.6226 192.937 44.0246 193.33 44.1789 193.505C44.2561 193.594 44.4673 193.784 44.65 193.938C44.8328 194.088 45.0724 194.332 45.182 194.473C45.2917 194.611 45.5069 194.846 45.6653 194.992C45.8196 195.138 46.0917 195.41 46.2744 195.596C46.4531 195.787 46.8227 196.16 47.0948 196.427C47.3628 196.699 47.6633 197.015 47.7527 197.137C47.8461 197.254 48.0978 197.506 48.3171 197.692C48.5324 197.879 48.7923 198.134 48.8938 198.26C49.1781 198.613 49.3405 198.775 49.6045 198.961C49.8847 199.156 50.2624 199.513 50.3964 199.707C50.4451 199.776 50.5913 199.918 50.7172 200.019C50.9324 200.194 51.2086 200.461 51.8218 201.098C51.968 201.252 52.2441 201.523 52.431 201.702C52.6178 201.88 52.8817 202.144 53.0198 202.29C53.1538 202.435 53.3975 202.671 53.564 202.817C53.7305 202.962 53.9417 203.202 54.0391 203.356C54.1772 203.567 54.3072 203.696 54.6117 203.923C55.026 204.239 55.2128 204.422 55.4239 204.73C55.497 204.835 55.696 205.026 55.8707 205.156C56.1915 205.391 57.5925 206.777 57.889 207.146C57.9783 207.256 58.1854 207.446 58.3479 207.564C58.6606 207.791 59.1154 208.245 59.286 208.496C59.3388 208.577 59.5134 208.731 59.6718 208.837C60.0901 209.12 60.3297 209.327 60.549 209.595C60.6586 209.72 60.8779 209.939 61.0444 210.081C61.2068 210.219 61.5074 210.495 61.7064 210.689C61.9094 210.884 62.2749 211.184 62.5186 211.358C62.7663 211.533 63.0749 211.764 63.2089 211.873C63.5216 212.128 64.8943 213.41 64.8943 213.446C64.8943 213.478 65.5115 213.973 65.8689 214.228C65.9907 214.314 66.2547 214.541 66.4496 214.723C66.6486 214.91 66.9776 215.173 67.1806 215.311C67.3877 215.445 67.7086 215.688 67.8994 215.846C68.0903 216.004 68.403 216.235 68.602 216.357C68.7969 216.478 69.0812 216.685 69.2314 216.815C69.5766 217.119 69.8162 217.289 70.4985 217.731C70.799 217.926 71.1889 218.213 71.3594 218.372C71.6884 218.68 71.8833 218.818 72.4478 219.134C72.6386 219.239 73.0204 219.495 73.3006 219.697C73.8245 220.082 74.3565 220.447 74.7829 220.715C74.9169 220.8 75.1281 220.946 75.2499 221.043C75.3717 221.136 75.7169 221.343 76.0134 221.501C76.3139 221.659 76.7322 221.911 76.9474 222.061C77.3982 222.377 77.52 222.45 78.3769 222.892C78.7221 223.07 79.1322 223.301 79.2906 223.403C79.4449 223.508 79.7779 223.686 80.0216 223.8C80.5495 224.043 80.9962 224.303 81.443 224.623C81.8612 224.927 81.8612 224.927 82.4704 225.121C83.2298 225.361 83.9405 225.709 84.2451 225.993C84.4238 226.155 84.5943 226.228 85.4959 226.5C86.4705 226.792 86.9578 226.99 87.2705 227.234C87.3721 227.311 87.6482 227.469 87.8797 227.586C88.2817 227.789 88.3711 227.817 89.4026 228.036C90.7427 228.32 90.7793 228.328 91.4128 228.636C92.156 228.993 93.1062 229.301 94.2555 229.556C95.9733 229.942 97.0942 230.181 97.8089 230.306C98.5155 230.432 99.1328 230.574 99.4536 230.688C99.5511 230.72 99.9247 230.797 100.286 230.854C100.644 230.911 101.074 230.992 101.24 231.032C102.146 231.259 104.014 231.361 108.408 231.421C110.358 231.45 111.304 231.417 112.733 231.271C113.822 231.162 113.984 231.133 114.886 230.911C115.941 230.647 117.135 230.408 117.809 230.323C118.11 230.286 118.597 230.201 118.886 230.14C119.178 230.075 119.722 229.97 120.104 229.897C121.485 229.646 123.008 229.212 124.145 228.754C125.038 228.393 125.205 228.332 125.655 228.215C127.02 227.858 128.242 227.436 128.587 227.197C128.957 226.95 129.189 226.84 129.729 226.674C130.866 226.33 131.109 226.228 131.576 225.9C131.909 225.669 132.263 225.503 132.977 225.239C133.708 224.971 133.842 224.907 134.24 224.643C134.419 224.526 134.927 224.242 135.369 224.015C135.84 223.776 136.324 223.496 136.527 223.346C136.884 223.078 137.587 222.709 138.196 222.474C138.423 222.385 138.606 222.28 138.732 222.166C138.967 221.951 139.365 221.696 139.841 221.453C140.044 221.347 140.291 221.205 140.397 221.132C141.091 220.654 141.904 220.119 142.099 220.013C142.224 219.949 142.452 219.79 142.606 219.665C142.76 219.543 142.992 219.381 143.122 219.308C143.589 219.045 143.967 218.781 144.291 218.481C144.645 218.157 145.282 217.715 145.737 217.476C145.892 217.395 146.172 217.2 146.359 217.042C146.549 216.884 146.858 216.645 147.049 216.511C147.24 216.373 147.548 216.114 147.739 215.931C147.93 215.749 148.202 215.53 148.348 215.445C148.673 215.254 149.136 214.885 149.246 214.731C149.291 214.666 149.603 214.411 149.944 214.16C150.281 213.908 150.797 213.487 151.086 213.219C151.378 212.955 151.76 212.627 151.938 212.493C152.121 212.356 152.45 212.072 152.673 211.857C152.897 211.646 153.21 211.366 153.364 211.241C153.522 211.115 153.75 210.908 153.871 210.783C153.993 210.653 154.261 210.414 154.46 210.243C154.663 210.077 155 209.765 155.212 209.546C155.431 209.327 155.748 209.06 155.943 208.93C156.3 208.695 156.377 208.63 156.657 208.326C156.747 208.229 156.974 208.01 157.165 207.843C157.352 207.677 157.644 207.398 157.811 207.219C157.977 207.045 158.253 206.802 158.424 206.684C158.594 206.562 158.85 206.335 158.992 206.177C159.26 205.881 159.626 205.508 159.983 205.176C160.097 205.071 160.296 204.839 160.43 204.661C160.564 204.487 160.775 204.26 160.897 204.162C161.506 203.684 161.604 203.595 161.697 203.449C161.782 203.315 163.005 202.079 163.711 201.414C163.833 201.296 164.032 201.077 164.158 200.923C164.28 200.765 164.479 200.558 164.597 200.461C164.718 200.364 164.999 200.092 165.226 199.857C165.454 199.622 165.722 199.358 165.815 199.269C165.912 199.184 166.16 198.941 166.359 198.734C166.798 198.284 168.357 196.723 168.824 196.265C169.011 196.083 169.291 195.803 169.45 195.637C169.608 195.471 169.827 195.256 169.937 195.155C170.047 195.053 170.246 194.826 170.38 194.652C170.522 194.465 170.737 194.246 170.887 194.133C171.338 193.8 171.529 193.618 171.768 193.302C171.89 193.136 172.089 192.925 172.203 192.832C172.317 192.738 172.65 192.422 172.938 192.134C173.23 191.842 173.592 191.498 173.746 191.368C173.896 191.238 174.12 191.007 174.238 190.857C174.359 190.707 174.619 190.452 174.822 190.294C175.021 190.136 175.281 189.892 175.395 189.755C175.513 189.613 175.846 189.26 176.142 188.972C176.435 188.68 176.755 188.34 176.857 188.21C176.954 188.08 177.153 187.878 177.3 187.76C177.446 187.638 177.738 187.355 177.949 187.128C178.156 186.905 178.433 186.649 178.558 186.564C178.802 186.394 178.981 186.216 179.229 185.891C179.314 185.778 179.606 185.47 179.878 185.198C180.146 184.93 180.459 184.61 180.565 184.48C180.67 184.355 180.869 184.18 181.003 184.091C181.393 183.832 181.641 183.601 181.836 183.309C181.937 183.159 182.165 182.903 182.347 182.741C182.526 182.579 182.786 182.307 182.928 182.137C183.07 181.971 183.346 181.695 183.541 181.529C183.74 181.359 184.041 181.067 184.207 180.872C184.374 180.678 184.613 180.447 184.735 180.353C185.162 180.037 185.263 179.94 185.527 179.608C185.673 179.425 185.868 179.214 185.962 179.141C186.262 178.902 186.567 178.602 186.725 178.391C186.944 178.104 187.07 177.974 187.416 177.682C187.582 177.54 187.911 177.232 188.147 176.993C188.382 176.758 188.67 176.49 188.784 176.393C188.898 176.3 189.097 176.081 189.227 175.91C189.548 175.485 190.717 174.317 191.144 173.993C191.339 173.847 191.57 173.636 191.659 173.523C191.749 173.409 191.887 173.235 191.964 173.133C192.041 173.036 192.256 172.821 192.443 172.659C192.626 172.497 192.849 172.27 192.939 172.148C193.024 172.031 193.211 171.828 193.353 171.698C193.495 171.569 193.848 171.22 194.137 170.928C194.429 170.636 194.766 170.332 194.888 170.251C195.127 170.097 195.412 169.817 195.594 169.554C195.659 169.465 195.919 169.181 196.183 168.925C196.443 168.666 196.764 168.329 196.898 168.179C197.028 168.025 197.296 167.774 197.491 167.62C197.686 167.47 197.942 167.223 198.06 167.077C198.173 166.931 198.417 166.688 198.6 166.538C198.925 166.266 199.111 166.075 199.404 165.715C199.485 165.613 199.733 165.394 199.952 165.232C200.171 165.07 200.431 164.847 200.533 164.734C200.634 164.624 200.813 164.442 200.935 164.328C201.057 164.215 201.353 163.919 201.593 163.675C201.836 163.428 202.108 163.148 202.206 163.051C202.303 162.954 202.827 162.431 203.375 161.896C203.924 161.357 204.439 160.83 204.521 160.72C204.606 160.615 204.809 160.408 204.971 160.27C205.138 160.128 205.361 159.909 205.471 159.78C205.641 159.581 206.45 158.742 207.181 158.008C207.416 157.777 208.578 156.642 208.955 156.281C209.085 156.155 209.288 155.936 209.406 155.79C209.528 155.645 209.723 155.454 209.841 155.365C210.04 155.215 210.161 155.097 210.913 154.323C211.067 154.161 211.339 153.909 211.51 153.763C211.68 153.618 211.871 153.427 211.932 153.338C212.058 153.151 213.28 151.931 213.731 151.546C213.898 151.4 214.129 151.181 214.239 151.055C214.352 150.926 214.568 150.707 214.718 150.561C215.165 150.135 215.684 149.62 215.944 149.341C216.082 149.199 216.326 148.951 216.488 148.797C216.655 148.639 216.854 148.42 216.939 148.311C217.02 148.197 217.199 148.007 217.329 147.885C217.459 147.764 217.808 147.427 218.097 147.135C218.389 146.847 218.746 146.503 218.897 146.377C219.043 146.247 219.282 145.992 219.425 145.81C219.567 145.627 219.839 145.339 220.034 145.169C220.225 145.003 220.497 144.731 220.635 144.569C220.773 144.403 221.021 144.176 221.179 144.054C221.337 143.937 221.544 143.742 221.638 143.625L221.804 143.406L221.743 142.777C221.683 142.177 221.674 142.141 221.54 141.93C221.337 141.614 220.598 140.839 220.168 140.491C219.721 140.126 219.571 139.98 219.376 139.712C219.291 139.599 219.088 139.392 218.925 139.246C218.763 139.104 218.519 138.869 218.385 138.727C218.247 138.581 217.918 138.249 217.654 137.977C217.386 137.71 217.065 137.369 216.935 137.223C216.805 137.073 216.529 136.81 216.314 136.64C216.103 136.469 215.839 136.226 215.733 136.1C215.477 135.8 213.889 134.207 213.638 134.004C213.532 133.919 213.345 133.717 213.223 133.55C212.976 133.222 212.801 133.048 211.92 132.217C211.587 131.904 211.16 131.487 210.97 131.292C210.494 130.798 210.015 130.319 209.686 130.007C209.532 129.861 209.292 129.622 209.154 129.476C209.016 129.326 208.785 129.107 208.639 128.99C208.496 128.868 208.257 128.633 208.115 128.467C207.7 127.992 206.466 126.756 206.218 126.578C206.096 126.484 205.812 126.213 205.589 125.969C205.365 125.726 205.118 125.475 205.04 125.406C204.963 125.341 204.703 125.094 204.468 124.855C204.228 124.62 203.863 124.287 203.652 124.117C203.444 123.951 203.18 123.695 203.071 123.557C202.892 123.33 202.116 122.544 200.931 121.389C200.724 121.19 200.464 120.914 200.35 120.784C200.24 120.655 200.021 120.456 199.871 120.347C199.716 120.237 199.501 120.034 199.392 119.897C199.282 119.763 199.136 119.58 199.067 119.495C198.998 119.414 198.811 119.24 198.652 119.114C198.295 118.83 198.271 118.806 198.076 118.555C197.99 118.441 197.682 118.113 197.389 117.825C197.097 117.533 196.756 117.185 196.634 117.051C196.512 116.921 196.285 116.71 196.126 116.585C195.972 116.459 195.668 116.167 195.456 115.936C195.245 115.701 194.961 115.421 194.831 115.312C194.701 115.198 194.466 114.959 194.311 114.776C194.161 114.594 193.942 114.367 193.824 114.27C193.402 113.917 193.247 113.763 192.979 113.447C192.829 113.268 192.618 113.041 192.508 112.94C192.398 112.839 192.053 112.502 191.737 112.19C191.424 111.878 191.01 111.477 190.823 111.294C190.636 111.116 190.38 110.86 190.258 110.727C190.132 110.597 189.921 110.394 189.787 110.285C189.653 110.171 189.479 110.001 189.401 109.904C189.007 109.401 188.853 109.235 188.581 109.032C188.415 108.914 188.191 108.712 188.082 108.582C187.789 108.241 186.25 106.701 186.015 106.515C185.779 106.324 185.779 106.328 185.385 105.886C185.219 105.696 185.028 105.497 184.959 105.444C184.829 105.335 184.329 104.836 184.065 104.552C183.976 104.455 183.757 104.252 183.578 104.102C183.245 103.827 183.18 103.754 182.79 103.283C182.672 103.133 182.433 102.906 182.262 102.769C182.092 102.635 181.625 102.173 181.222 101.747C180.301 100.77 179.943 100.409 179.622 100.134C179.48 100.012 179.314 99.8417 179.253 99.7606C179.009 99.4241 178.814 99.2174 178.534 99.0065C178.372 98.8849 178.124 98.6458 177.982 98.4714C177.84 98.3012 177.555 98.0052 177.348 97.8147C177.145 97.6282 176.869 97.3444 176.739 97.1863C176.605 97.0242 176.317 96.7485 176.093 96.5661C175.87 96.3877 175.618 96.1526 175.533 96.0472C175.297 95.7512 173.957 94.4296 173.567 94.1094C173.377 93.9513 173.141 93.7121 173.04 93.5823C172.938 93.4486 172.694 93.1851 172.499 92.9945C171.573 92.1026 170.485 91.0121 170.363 90.854C170.286 90.7567 170.047 90.5338 169.827 90.3554C169.588 90.1649 169.328 89.9054 169.186 89.7189C168.869 89.3095 168.719 89.1514 168.471 88.9568C168.235 88.7743 168.085 88.6203 167.919 88.3933C167.78 88.2068 166.249 86.7149 166.026 86.5487C165.811 86.3947 165.604 86.1839 165.348 85.8676C165.092 85.5474 164.889 85.3325 164.629 85.1055C164.524 85.0163 164.349 84.8379 164.235 84.7082C164.121 84.5825 163.841 84.3231 163.606 84.1366C163.374 83.9501 163.094 83.6947 162.988 83.565C162.668 83.1758 162.432 82.9447 162.197 82.7664C162.002 82.6204 161.035 81.6677 160.105 80.7029C159.926 80.5164 159.662 80.2691 159.52 80.1475C159.378 80.0259 159.163 79.7948 159.045 79.6367C158.895 79.434 158.724 79.2637 158.473 79.0813C158.274 78.9354 158.022 78.7124 157.912 78.5827C157.575 78.1894 156.166 76.7989 155.894 76.5922C155.752 76.4827 155.52 76.2679 155.374 76.1138C155.228 75.9598 154.875 75.5908 154.582 75.299C154.294 75.0071 153.945 74.6503 153.806 74.5084C153.672 74.3625 153.417 74.1152 153.242 73.9611C153.067 73.803 152.832 73.5639 152.722 73.422C152.608 73.2801 152.357 73.0247 152.162 72.8504C151.967 72.676 151.699 72.4085 151.569 72.2544C151.439 72.1044 151.122 71.7679 150.866 71.5085C150.61 71.2531 150.294 70.9207 150.164 70.7666C150.034 70.6166 149.823 70.422 149.693 70.3369C149.563 70.2477 149.331 70.0369 149.177 69.8626C148.795 69.441 148.491 69.1369 148.21 68.8977C148.08 68.7883 147.877 68.5694 147.76 68.4072C147.642 68.2491 147.427 68.0221 147.284 67.9005C147.146 67.7829 146.801 67.4545 146.521 67.1748C146.241 66.8951 145.875 66.5464 145.713 66.4045C145.55 66.2586 145.319 66.0194 145.197 65.8654C145.075 65.7154 144.803 65.4438 144.592 65.2654C144.381 65.083 144.121 64.8316 144.015 64.7059C143.91 64.5762 143.658 64.3289 143.459 64.1505C143.122 63.8505 142.931 63.6438 142.561 63.1614C142.472 63.0438 142.273 62.8573 142.115 62.7438C141.96 62.6303 141.676 62.4033 141.485 62.2452C141.294 62.083 141.104 61.9371 141.059 61.9127C141.014 61.8884 140.71 61.8276 140.385 61.779L139.792 61.6857L139.629 61.8155C139.54 61.8884 139.406 62.0384 139.329 62.1519C139.256 62.2695 139.061 62.4884 138.89 62.6465C138.724 62.8046 138.476 63.0519 138.342 63.1979C138.029 63.5262 137.692 63.8627 137.278 64.2519C137.099 64.4181 136.86 64.6694 136.742 64.8073C136.624 64.9451 136.385 65.1762 136.21 65.314C136.035 65.4559 135.739 65.7519 135.548 65.9748C135.357 66.1978 135.081 66.4775 134.939 66.591C134.793 66.7086 134.529 66.964 134.358 67.1545C134.184 67.3451 133.887 67.6207 133.7 67.7667C133.489 67.9288 133.245 68.1761 133.063 68.4031C132.876 68.6383 132.649 68.8653 132.458 69.0072C132.287 69.1369 132.023 69.3802 131.873 69.5545C131.723 69.7247 131.414 70.0491 131.187 70.272C130.959 70.495 130.683 70.7869 130.573 70.9247C130.354 71.1963 130.147 71.3909 129.867 71.5815C129.761 71.6504 129.591 71.8085 129.481 71.9342C129.01 72.4733 128.9 72.5868 128.644 72.7895C128.494 72.9112 128.287 73.122 128.181 73.2598C127.909 73.6206 127.653 73.8841 127.394 74.0625C127.138 74.2409 126.943 74.4436 126.748 74.7314C126.569 74.9949 126.338 75.2381 126.033 75.4814C125.899 75.5868 125.696 75.7895 125.586 75.9273C125.473 76.0692 125.197 76.3327 124.969 76.5233C124.742 76.7097 124.461 76.9813 124.344 77.1273C124.133 77.3948 123.844 77.6543 123.483 77.9016C123.381 77.9746 123.19 78.1732 123.06 78.3475C122.792 78.7124 121.432 80.0867 121.099 80.334C120.876 80.4961 120.673 80.7029 120.404 81.0475C120.327 81.1488 120.145 81.3272 119.998 81.4488C119.856 81.5664 119.613 81.7975 119.454 81.9637C119.3 82.1299 119.036 82.3974 118.869 82.5515C118.703 82.7096 118.309 83.0947 117.992 83.4069C117.675 83.719 117.269 84.1123 117.095 84.2785C116.92 84.4447 116.681 84.7042 116.563 84.8542C116.445 85.0042 116.246 85.2028 116.116 85.296C115.986 85.3893 115.771 85.5879 115.637 85.7339C115.503 85.8798 115.267 86.119 115.113 86.2649C114.662 86.6866 114.268 87.0879 114.077 87.3149C113.98 87.4325 113.728 87.6635 113.521 87.8257C113.286 88.0162 113.054 88.2473 112.9 88.45C112.762 88.6284 112.563 88.8433 112.457 88.9284C112.266 89.0824 111.974 89.3703 111.454 89.9176C111.296 90.0838 111.056 90.3149 110.914 90.4324C110.776 90.55 110.561 90.7851 110.435 90.9513C110.309 91.1175 110.102 91.3405 109.98 91.4459C109.736 91.6486 109.375 92.0054 108.973 92.431C108.839 92.5729 108.567 92.8445 108.364 93.0351C108.165 93.2256 107.901 93.4851 107.779 93.6188C107.657 93.7486 107.458 93.9229 107.332 94.008C107.072 94.1864 106.776 94.4864 106.504 94.8512C106.398 94.9891 106.187 95.2039 106.033 95.3256C105.878 95.4472 105.622 95.7026 105.464 95.8931C105.31 96.0796 105.066 96.3309 104.928 96.4485C104.631 96.6998 104.363 96.9674 104.014 97.3606C103.872 97.5187 103.665 97.7133 103.547 97.7904C103.312 97.9444 103.068 98.1917 102.889 98.4471C102.824 98.5363 102.536 98.8484 102.24 99.1403C101.947 99.4282 101.578 99.8052 101.419 99.9714C101.261 100.134 100.981 100.417 100.79 100.6C100.603 100.778 100.323 101.062 100.164 101.224C100.01 101.386 99.4618 101.938 98.946 102.444C98.4343 102.955 97.8373 103.551 97.6221 103.766C97.4069 103.985 97.1145 104.273 96.9723 104.406C96.8302 104.54 96.615 104.767 96.4931 104.905C96.3713 105.047 96.1601 105.254 96.0221 105.363C95.8799 105.473 95.6281 105.732 95.4616 105.943C95.2951 106.15 94.9865 106.462 94.7753 106.64C94.5682 106.814 94.2596 107.102 94.089 107.285C93.9144 107.463 93.6707 107.69 93.5408 107.787C93.3052 107.966 93.1062 108.181 92.7326 108.651C92.6311 108.781 92.3915 109.012 92.2047 109.17C92.0138 109.328 91.7336 109.608 91.5793 109.79C91.425 109.973 91.1691 110.228 91.0108 110.362C90.8524 110.491 90.5803 110.755 90.4097 110.945C90.2351 111.136 89.963 111.387 89.8046 111.505C89.5204 111.716 89.3335 111.914 88.9762 112.389C88.8747 112.522 88.6269 112.762 88.4198 112.928C88.2168 113.09 87.9731 113.325 87.8838 113.443C87.7254 113.649 87.4614 113.909 87.0675 114.254C86.966 114.339 86.7954 114.521 86.6858 114.659C86.3934 115.028 86.304 115.117 85.9629 115.376C85.7923 115.506 85.5243 115.766 85.3659 115.948C85.2075 116.135 84.9395 116.402 84.7689 116.548C84.5943 116.69 84.3222 116.978 84.1557 117.189C83.9892 117.395 83.7578 117.639 83.644 117.724C83.2014 118.064 83.0146 118.239 82.779 118.53C82.6491 118.693 82.3892 118.956 82.2064 119.11C82.0237 119.26 81.7435 119.54 81.5851 119.73C81.4267 119.917 81.2034 120.148 81.0897 120.245C80.8176 120.468 80.3952 120.89 80.1719 121.157C80.0785 121.275 79.8876 121.453 79.7455 121.559C79.4612 121.77 79.3881 121.847 78.9617 122.37C78.7992 122.572 78.6043 122.787 78.5312 122.844C78.3078 123.014 78.0845 123.241 77.8205 123.561C77.6824 123.728 77.4753 123.938 77.3576 124.028C76.7119 124.522 76.6631 124.575 76.5047 124.96C76.4276 125.163 76.3139 125.447 76.2611 125.597L76.1636 125.872L76.4682 126.484C76.789 127.129 76.8053 127.149 77.4347 127.688C77.5728 127.806 77.8002 128.045 77.9383 128.219C78.0804 128.394 78.3038 128.625 78.4419 128.734C78.7302 128.969 78.9739 129.233 79.1241 129.472C79.3028 129.756 79.4977 129.946 79.782 130.113C79.9323 130.202 80.1759 130.396 80.3221 130.546C80.4683 130.7 80.7607 130.992 80.9678 131.195C81.179 131.398 81.4836 131.734 81.6541 131.941C81.8206 132.152 82.0521 132.391 82.1658 132.476C82.4379 132.675 82.6856 132.926 82.9171 133.23C83.1283 133.506 83.1648 133.538 83.5466 133.846C83.7009 133.972 83.9283 134.199 84.0542 134.357C84.3222 134.698 84.5618 134.937 84.8989 135.208C85.0289 135.318 85.2116 135.508 85.3009 135.63C85.5121 135.918 85.8126 136.23 86.0847 136.433C86.2837 136.579 86.4827 136.798 86.7954 137.199C86.8563 137.276 87.0756 137.479 87.2827 137.641C87.4898 137.807 87.7579 138.067 87.8797 138.217C88.0015 138.371 88.2086 138.573 88.3467 138.671C88.7041 138.934 88.964 139.194 89.1792 139.514C89.3863 139.822 89.5853 140.012 89.894 140.203C90.0036 140.268 90.2026 140.438 90.3366 140.584C90.4706 140.726 90.7833 141.046 91.027 141.293C91.2747 141.541 91.6037 141.885 91.7539 142.06C91.9042 142.234 92.1641 142.473 92.3265 142.591C92.489 142.712 92.7001 142.907 92.7976 143.025C93.0007 143.268 93.3134 143.58 93.6992 143.92C93.8413 144.05 94.0322 144.261 94.1174 144.387C94.3692 144.764 94.5804 145.007 94.7185 145.072C94.7875 145.108 95.1002 145.396 95.4129 145.712C95.7256 146.024 96.0911 146.377 96.2251 146.491C96.3591 146.604 96.5825 146.843 96.7165 147.018C96.8546 147.2 97.0739 147.423 97.2201 147.533C97.5856 147.804 97.7236 147.942 97.9795 148.278C98.0973 148.441 98.3003 148.651 98.4303 148.741C98.7389 148.964 98.9826 149.199 99.1612 149.446C99.3724 149.742 99.6161 150.001 99.7785 150.107C99.9937 150.253 100.217 150.472 100.416 150.743C100.656 151.064 100.863 151.282 101.062 151.428C101.147 151.493 101.411 151.732 101.647 151.959C101.882 152.187 102.187 152.458 102.329 152.564C102.593 152.766 102.857 153.066 102.987 153.314C103.076 153.484 103.255 153.658 103.535 153.845C103.888 154.084 104.087 154.262 104.38 154.611C104.66 154.943 104.672 154.951 105.237 155.231C105.699 155.458 105.838 155.507 105.951 155.495C106.028 155.482 106.333 155.373 106.621 155.251C107.129 155.032 107.161 155.012 107.413 154.732C107.767 154.339 108.169 153.942 108.424 153.727C108.538 153.63 108.77 153.382 108.936 153.176C109.103 152.969 109.289 152.77 109.35 152.73C109.407 152.689 109.687 152.43 109.968 152.15C110.248 151.87 110.601 151.546 110.751 151.428C110.898 151.307 111.109 151.108 111.218 150.982C111.633 150.496 111.787 150.342 112.067 150.135C112.226 150.018 112.445 149.815 112.555 149.685C112.762 149.442 113.221 148.972 113.472 148.753C113.549 148.68 113.748 148.465 113.911 148.27C114.073 148.08 114.337 147.82 114.5 147.703C114.662 147.581 114.902 147.362 115.032 147.212C115.349 146.851 115.71 146.491 115.998 146.247C116.124 146.142 116.352 145.911 116.498 145.737C116.644 145.558 116.875 145.331 117.014 145.222C117.282 145.011 117.537 144.752 117.72 144.496C117.858 144.306 118.143 144.054 118.317 143.965C118.504 143.872 118.853 143.515 119.048 143.223C119.251 142.915 119.361 142.798 119.718 142.493C120.059 142.21 120.039 142.226 120.283 141.938C120.392 141.8 120.624 141.577 120.794 141.439C120.961 141.302 121.241 141.014 121.416 140.799C121.598 140.568 121.899 140.268 122.147 140.065C122.374 139.875 122.618 139.635 122.691 139.534C122.76 139.433 122.943 139.234 123.101 139.088C123.548 138.675 123.864 138.354 124.1 138.079C124.222 137.937 124.453 137.726 124.608 137.608C124.924 137.373 125.014 137.288 125.322 136.899C125.436 136.753 125.68 136.51 125.863 136.352C126.041 136.198 126.325 135.91 126.488 135.715C126.65 135.525 126.927 135.245 127.105 135.103C127.28 134.957 127.487 134.758 127.56 134.665C127.861 134.292 128.023 134.134 128.283 133.964C128.579 133.769 128.916 133.425 129.152 133.072C129.245 132.93 129.444 132.736 129.664 132.561C129.859 132.407 130.143 132.144 130.297 131.973C130.451 131.799 130.695 131.564 130.841 131.446C130.988 131.329 131.203 131.114 131.312 130.976C131.54 130.688 132.019 130.202 132.344 129.93C132.462 129.833 132.685 129.602 132.839 129.415C132.994 129.229 133.25 128.973 133.404 128.852C133.558 128.726 133.822 128.455 133.989 128.248C134.184 128.005 134.411 127.774 134.618 127.619C134.793 127.486 135.008 127.287 135.097 127.182C135.183 127.076 135.426 126.821 135.637 126.618C135.849 126.411 136.125 126.14 136.247 126.018C136.982 125.272 137.753 124.482 137.92 124.303C138.021 124.194 138.192 124.048 138.297 123.983C138.557 123.825 138.898 123.513 139.114 123.229C139.211 123.103 139.402 122.929 139.532 122.844L139.776 122.686L140.397 122.743C141.1 122.807 141.229 122.856 141.701 123.253C141.839 123.371 142.107 123.574 142.298 123.703C142.533 123.87 142.935 124.238 143.585 124.895C144.823 126.152 144.811 126.14 145.282 126.594C145.506 126.809 145.753 127.056 145.827 127.141C145.904 127.226 146.115 127.425 146.302 127.575C146.484 127.729 146.777 128.025 146.951 128.232C147.126 128.438 147.37 128.702 147.496 128.819C148.129 129.415 149.287 130.587 149.465 130.818C149.579 130.96 149.77 131.159 149.892 131.256C150.013 131.353 150.208 131.507 150.318 131.6C150.602 131.836 151.569 132.841 151.857 133.202C151.987 133.368 152.206 133.587 152.345 133.688C152.479 133.794 152.73 134.017 152.897 134.191C153.656 134.969 154.286 135.634 154.399 135.784C154.542 135.963 154.586 136.011 154.968 136.331C155.325 136.635 155.329 136.64 155.585 136.96C155.902 137.357 156.012 137.471 156.288 137.677C156.422 137.779 156.661 137.998 156.816 138.16C156.974 138.322 157.266 138.606 157.474 138.792C157.677 138.979 157.941 139.25 158.058 139.404C158.302 139.721 158.477 139.887 158.777 140.089C159.106 140.308 159.403 140.596 159.732 141.002C160.479 141.938 160.507 141.995 160.58 142.814L160.637 143.434L160.495 143.677C160.353 143.916 160.264 144.006 159.801 144.37C159.679 144.468 159.496 144.666 159.394 144.812C159.2 145.096 157.855 146.45 157.506 146.714C157.303 146.868 157.226 146.949 156.828 147.439C156.73 147.561 156.54 147.743 156.41 147.845C156.276 147.946 156.028 148.169 155.861 148.347C155.695 148.522 155.321 148.907 155.029 149.199C154.741 149.495 154.391 149.86 154.257 150.01C154.123 150.164 153.888 150.387 153.725 150.504C153.567 150.622 153.315 150.861 153.169 151.039C153.023 151.218 152.799 151.449 152.669 151.558C152.385 151.797 151.947 152.231 151.626 152.588C151.496 152.734 151.301 152.92 151.187 153.009C151.077 153.095 150.883 153.293 150.757 153.455C150.489 153.796 150.355 153.926 150.054 154.116C149.733 154.323 149.546 154.509 149.307 154.882C149.185 155.065 148.99 155.292 148.856 155.409C148.551 155.661 148.259 155.953 148.007 156.253C147.898 156.382 147.678 156.585 147.52 156.703C147.224 156.922 147.053 157.092 146.797 157.416C146.716 157.517 146.549 157.692 146.432 157.801C146.091 158.117 145.705 158.511 145.489 158.766C145.38 158.896 145.156 159.099 144.994 159.22C144.694 159.439 144.612 159.532 144.255 160.007C144.145 160.157 143.926 160.371 143.751 160.505C143.581 160.631 143.301 160.894 143.122 161.089C142.947 161.284 142.732 161.507 142.643 161.584C142.423 161.774 142.013 162.196 141.676 162.573C141.526 162.739 141.307 162.942 141.189 163.019C140.949 163.181 140.791 163.339 140.563 163.643C140.401 163.858 140.096 164.125 139.881 164.235C139.727 164.312 139.321 164.746 139.118 165.046C139.032 165.171 138.833 165.382 138.671 165.508C138.375 165.743 137.607 166.481 137.079 167.028C136.925 167.19 136.64 167.47 136.454 167.648C136.267 167.827 135.958 168.135 135.763 168.333C135.572 168.528 135.179 168.929 134.886 169.225C134.598 169.517 134.249 169.882 134.119 170.036C133.989 170.186 133.782 170.381 133.668 170.466C133.55 170.555 133.355 170.729 133.237 170.855C132.941 171.167 132.466 171.642 132.1 171.986C131.934 172.144 131.682 172.4 131.536 172.554C131.39 172.712 131.15 172.943 130.996 173.073C130.845 173.202 130.622 173.437 130.496 173.591C130.37 173.75 130.179 173.944 130.066 174.025C129.737 174.268 129.424 174.568 129.29 174.763C129.115 175.027 128.827 175.314 128.567 175.493C128.441 175.582 128.222 175.781 128.08 175.943C127.653 176.425 126.455 177.589 126.216 177.751C125.867 177.99 125.213 178.525 125.148 178.631C125.111 178.683 124.843 178.914 124.547 179.145C124.254 179.376 123.783 179.749 123.499 179.972C123.219 180.195 122.853 180.459 122.691 180.56C122.24 180.84 121.964 181.026 121.607 181.29C121.428 181.42 120.965 181.691 120.571 181.894C120.096 182.137 119.771 182.336 119.596 182.482C119.296 182.741 118.853 182.98 118.439 183.114C117.834 183.313 117.412 183.491 117.111 183.686C116.096 184.334 114.597 184.813 112.124 185.279C109.529 185.77 108.575 185.891 107.657 185.859C106.82 185.826 106.028 185.737 105.017 185.563C103.344 185.279 102.532 185.101 101.85 184.878C101.423 184.74 101.224 184.687 100.246 184.448C99.5877 184.29 99.2831 184.14 98.6374 183.657C98.5155 183.564 98.3328 183.463 98.2313 183.439C97.8414 183.333 97.1835 183.098 96.9155 182.964C96.5947 182.802 96.1926 182.526 96.0424 182.364C95.9855 182.303 95.7297 182.149 95.4738 182.016C94.556 181.549 94.2596 181.371 94.0119 181.144C93.8332 180.982 93.4596 180.718 92.891 180.366C92.7367 180.272 92.4808 180.082 92.3184 179.94C92.16 179.802 91.8758 179.591 91.6889 179.474C91.4006 179.291 90.6615 178.708 90.5397 178.558C90.4625 178.464 90.1295 178.217 89.7559 177.97C89.3701 177.71 89.167 177.52 88.7244 176.997C88.5701 176.814 88.3183 176.587 88.0868 176.421C87.632 176.097 86.9335 175.416 86.6736 175.047C86.4299 174.702 86.0563 174.321 85.7274 174.074C85.5812 173.968 85.2888 173.689 85.0776 173.458C84.8664 173.231 84.6187 172.975 84.5293 172.898C84.44 172.821 84.2776 172.659 84.1639 172.533C83.9405 172.29 83.5669 171.917 83.0389 171.419C82.8521 171.24 82.6004 170.985 82.4785 170.847C82.3567 170.713 82.0887 170.462 81.8856 170.292C81.6826 170.121 81.4876 169.943 81.4551 169.89C81.4227 169.837 81.1303 169.529 80.8094 169.205C80.4886 168.881 80.0988 168.479 79.9404 168.313C79.7861 168.147 79.5343 167.908 79.384 167.778C79.2338 167.648 79.051 167.458 78.9779 167.352C78.7749 167.052 78.3363 166.578 78.1332 166.44C77.8611 166.254 76.8581 165.261 76.6103 164.932C76.3748 164.62 76.1514 164.401 75.7088 164.048C75.5504 163.923 75.3311 163.712 75.2255 163.586C74.856 163.14 73.3696 161.713 73.0691 161.519C73.0204 161.486 72.8133 161.259 72.6143 161.02C72.4153 160.777 72.1351 160.485 71.9929 160.371C71.8508 160.258 71.5544 159.978 71.331 159.751C71.1076 159.524 70.7503 159.171 70.5391 158.973C70.3279 158.77 70.0558 158.499 69.934 158.373C69.8122 158.243 69.5929 158.036 69.4426 157.919C69.2924 157.801 69.0893 157.607 68.9918 157.493C68.602 157.031 68.3502 156.784 68.0375 156.54C67.8588 156.399 67.6598 156.216 67.5948 156.127C67.4283 155.908 65.8161 154.311 65.5115 154.068C65.3735 153.954 65.0933 153.67 64.8943 153.435C64.6912 153.2 64.4557 152.949 64.3704 152.88C64.2851 152.811 64.0983 152.612 63.9602 152.438C63.8222 152.268 63.5501 151.988 63.3592 151.818C63.1643 151.651 62.9084 151.404 62.7825 151.27C62.6607 151.137 62.3642 150.837 62.1246 150.601C61.5926 150.082 61.5967 150.091 60.8007 149.284C60.4474 148.927 60.0901 148.546 60.0048 148.441C59.9195 148.335 59.6758 148.104 59.4606 147.934C59.2413 147.76 59.0017 147.528 58.9245 147.423C58.6281 147.014 58.3032 146.661 58.0189 146.454C57.621 146.158 56.561 145.129 56.3458 144.824C56.2483 144.691 56.0372 144.472 55.8747 144.338C55.3833 143.933 55.2331 143.787 55.0788 143.572C54.8635 143.272 54.5021 142.858 54.3031 142.68C54.2097 142.595 54.0635 142.433 53.9823 142.315C53.6574 141.877 53.3041 141.46 52.8492 140.973C52.3376 140.434 51.5497 139.412 51.2005 138.833C50.969 138.452 50.8675 138.314 50.5182 137.9C50.3964 137.754 50.2055 137.458 50.0999 137.244C49.7019 136.457 49.4461 136.023 49.2796 135.833C48.9913 135.513 48.8085 135.208 48.5039 134.527C48.3456 134.171 48.1506 133.761 48.0694 133.615C47.9882 133.469 47.8136 133.068 47.6755 132.723C47.5374 132.379 47.2734 131.775 47.0866 131.386C46.6643 130.506 46.5506 130.096 46.3516 128.751C46.2744 128.203 46.1445 127.384 46.0673 126.926C45.779 125.26 45.7303 124.81 45.7262 124.003C45.7262 123.124 45.7709 122.747 46.2541 119.645C46.5059 118.032 46.6643 117.347 46.8998 116.88C47.046 116.585 47.3547 115.879 47.6755 115.109C47.8136 114.772 47.9963 114.371 48.0857 114.209C48.1709 114.047 48.3293 113.71 48.4308 113.459C48.707 112.778 48.8735 112.486 49.1903 112.121C49.4299 111.845 49.5354 111.667 49.9091 110.901C50.2339 110.232 50.4004 109.944 50.5466 109.778C50.6563 109.656 50.8593 109.389 50.9974 109.19C51.5619 108.363 52.6909 106.92 53.1822 106.405C53.3894 106.186 53.6249 105.902 53.7102 105.777C53.7914 105.647 54.0676 105.331 54.3153 105.075C54.563 104.82 54.8554 104.488 54.9569 104.338C55.0625 104.192 55.2696 103.965 55.4158 103.831C55.8625 103.442 55.9356 103.365 56.1427 103.089C56.4676 102.667 57.69 101.467 58.023 101.248C58.2382 101.107 58.3966 100.957 58.6159 100.681C58.7824 100.474 59.022 100.215 59.152 100.105C59.4606 99.8457 59.8261 99.4728 61.284 97.9241C61.4505 97.7498 61.6982 97.5269 61.8404 97.4255C61.9784 97.3242 62.2018 97.1134 62.3318 96.9512C62.4617 96.7931 62.6932 96.5458 62.8475 96.3998C63.3023 95.9661 64.675 94.5756 64.9511 94.2715C65.0933 94.1134 65.3166 93.9026 65.4466 93.8053C65.8364 93.5134 65.9907 93.3675 66.2019 93.0797C66.4618 92.7351 67.7045 91.5108 68.0903 91.2229C68.2649 91.0892 68.4842 90.8702 68.6385 90.6716C68.87 90.3675 69.869 89.35 70.7706 88.4946C70.9696 88.3041 71.2173 88.0568 71.3148 87.9473C71.4163 87.8338 71.6559 87.5987 71.8508 87.4244C72.0457 87.25 72.3016 86.9825 72.4153 86.8365C72.5331 86.6906 72.7564 86.4514 72.9107 86.3055C73.4224 85.8312 74.6123 84.6271 74.8194 84.3798C75.059 84.0879 75.2458 83.9096 75.6601 83.5772C75.8306 83.4393 76.0702 83.2042 76.1921 83.0582C76.3179 82.9123 76.6103 82.6326 76.8378 82.4299C77.0692 82.2312 77.386 81.9393 77.5362 81.7772C77.6906 81.615 77.918 81.4164 78.0439 81.3353C78.3647 81.1286 78.5028 80.9907 78.8317 80.5569C78.986 80.3502 79.2459 80.0705 79.4043 79.9326C79.6642 79.7097 80.7485 78.6192 81.3414 77.9827C81.4592 77.853 81.7313 77.6178 81.9384 77.4597C82.1536 77.2976 82.446 77.0259 82.6044 76.8395C82.7587 76.657 83.0146 76.4016 83.1689 76.2719C83.3273 76.1422 83.5913 75.8665 83.7618 75.6598C83.9283 75.453 84.2288 75.149 84.4238 74.9827C84.6227 74.8165 84.8461 74.5976 84.9192 74.5044C85.0532 74.3341 85.3294 74.0584 86.0197 73.3936C86.3893 73.0368 87.1893 72.1814 87.4736 71.8369C87.5751 71.7193 87.7944 71.5125 87.9609 71.3828C88.4929 70.9693 88.5295 70.9369 88.834 70.5599C89.0005 70.3491 89.2848 70.0653 89.4919 69.8991C89.695 69.7369 89.9711 69.4653 90.1133 69.2991C90.2554 69.1288 90.5234 68.8653 90.7102 68.7072C90.893 68.5532 91.1448 68.3018 91.2666 68.1477C91.4981 67.8599 91.8351 67.5397 92.026 67.4261C92.091 67.3856 92.2494 67.2397 92.3753 67.0978C92.7651 66.6599 93.0819 66.3518 93.4149 66.0843C93.5895 65.9383 93.7926 65.7235 93.8778 65.5978C93.9631 65.4681 94.223 65.1762 94.4586 64.9411C94.6941 64.7059 94.9865 64.3897 95.1083 64.2397C95.2302 64.0897 95.5266 63.8019 95.7662 63.5992C96.0058 63.4006 96.2048 63.2181 96.2048 63.1979C96.2048 63.1614 97.8577 61.5033 98.4424 60.9479C98.6089 60.7898 98.8404 60.5628 98.9541 60.4371C99.0678 60.3114 99.2912 60.1047 99.4455 59.979C99.6039 59.8574 99.8394 59.6304 99.9694 59.4804C100.099 59.3304 100.416 58.9858 100.676 58.7182C100.936 58.4507 101.261 58.102 101.395 57.9439C101.529 57.7858 101.764 57.5628 101.919 57.4493C102.073 57.3358 102.394 57.0358 102.633 56.7804C102.869 56.525 103.186 56.2169 103.336 56.0994C103.482 55.9777 103.706 55.7548 103.831 55.5967C104.16 55.1832 105.448 53.8575 105.663 53.7035C106.008 53.4602 106.199 53.2859 106.37 53.0629C106.459 52.9413 107.04 52.3373 107.657 51.7251C108.27 51.113 108.855 50.513 108.956 50.3914C109.058 50.2698 109.306 50.0387 109.509 49.8765C109.712 49.7144 109.984 49.459 110.118 49.3049C110.248 49.1549 110.536 48.8346 110.764 48.5995C110.987 48.3644 111.287 48.0441 111.434 47.8901C111.58 47.736 111.832 47.5212 111.994 47.4117C112.152 47.3063 112.392 47.0955 112.522 46.9496C112.794 46.6293 113.164 46.2563 113.428 46.0293C113.533 45.9401 113.744 45.709 113.903 45.5185C114.061 45.3239 114.333 45.0482 114.508 44.9063C114.687 44.7604 114.991 44.4726 115.19 44.2658C115.393 44.0591 115.677 43.7956 115.824 43.6739C115.978 43.5523 116.218 43.2929 116.376 43.0821C116.656 42.7132 116.989 42.3686 117.29 42.1415C117.375 42.0807 117.57 41.878 117.72 41.6956C117.874 41.5172 118.13 41.2253 118.293 41.047L118.581 40.7308L118.577 40.2565C118.573 39.4578 118.565 39.4254 118.22 39.097C118.057 38.9389 117.797 38.647 117.647 38.4484C117.342 38.043 117.233 37.9335 116.944 37.743C116.713 37.5849 115.649 36.6038 115.19 36.1214C115.011 35.9309 114.691 35.6025 114.479 35.3876C114.268 35.1768 113.988 34.8606 113.858 34.6903C113.728 34.516 113.529 34.2971 113.415 34.2039C112.997 33.8552 112.762 33.6201 112.546 33.3323C112.421 33.1701 112.201 32.939 112.051 32.8174C111.742 32.5742 111.523 32.3634 111.17 31.9823C111.036 31.8363 110.788 31.6012 110.626 31.4593C110.463 31.3175 110.211 31.058 110.069 30.8877C109.927 30.7175 109.651 30.4458 109.456 30.2918C109.257 30.1337 108.997 29.8783 108.875 29.7283C108.753 29.5742 108.534 29.3391 108.388 29.2053C108.242 29.0716 107.966 28.7959 107.775 28.5972C107.58 28.3945 107.348 28.1594 107.255 28.0702C107.105 27.9202 106.418 27.2351 105.984 26.7973C105.886 26.7 105.647 26.4648 105.444 26.2702C105.245 26.0797 104.952 25.7838 104.794 25.6176C104.64 25.4514 104.38 25.1879 104.217 25.0379C104.055 24.8838 103.856 24.6689 103.771 24.5595C103.677 24.4338 103.47 24.2595 103.23 24.1014C102.853 23.846 102.646 23.6514 101.927 22.8609C101.517 22.4109 100.94 21.8231 100.514 21.4217C100.351 21.2636 100.132 21.0285 100.03 20.8947C99.9288 20.7609 99.6323 20.4406 99.3724 20.1852C99.1085 19.9298 98.8201 19.6177 98.7308 19.488C98.6252 19.3461 98.4343 19.1677 98.2231 19.0177C97.8658 18.7582 97.6424 18.5393 97.4353 18.2393C97.3663 18.138 97.1226 17.8867 96.8952 17.6758C96.6678 17.465 96.3835 17.1732 96.2617 17.0232C96.1398 16.8732 95.9084 16.6461 95.7459 16.5245C95.4495 16.2975 95.1896 16.038 94.8931 15.6732C94.8078 15.5678 94.6088 15.3772 94.4464 15.2516C94.0687 14.9516 92.6961 13.5854 92.4768 13.2854C92.3834 13.1597 92.1925 12.9611 92.0544 12.8395C91.9123 12.7219 91.6605 12.4827 91.494 12.3084C90.8321 11.6152 90.6371 11.4327 90.1254 11.0152L89.5935 10.5814L89.0249 10.476C88.367 10.3584 88.3345 10.3584 88.2249 10.4355Z" fill="white"/>
</svg>
